# xmcd
#
# Track frame offsets:
#	150
#	14867
#	35661
#	56881
#	70903
#	93094
#	119440
#	140410
#	167905
#
# Disc length: 2572 seconds
#
# Revision: 2
# Processed by: cddbd v1.5.2PL0 Copyright (c) Steve Scherf et al.
# Submitted via: EasyCDDAExtractor 11.5.0.1
#
DISCID=840a0a09
DTITLE=Юрий Наумов и ПРОХОДНОЙ ДВОР - Перекати-поле
DYEAR=1988
DGENRE=Blues
TTITLE0=Сумерки
TTITLE1=Ты не права, мама
TTITLE2=Куда течёт кровь
TTITLE3=Был ли ты
TTITLE4=Блюз о недобитом времени
TTITLE5=Я знаю
TTITLE6=Кто-нибудь ждёт
TTITLE7=Возвращение блудного сына
TTITLE8=Путь наверх
EXTD=
EXTT0=
EXTT1=
EXTT2=
EXTT3=
EXTT4=
EXTT5=
EXTT6=
EXTT7=
EXTT8=
PLAYORDER=
